<?xml version="1.0" encoding="UTF-8"?>
<svg width="66px" height="72px" viewBox="0 0 66 72" version="1.1" xmlns="http://www.w3.org/2000/svg" xmlns:xlink="http://www.w3.org/1999/xlink">
    <title>• AP/1.Atoms/6.Logo/mobile/NBi21</title>
    <defs>
        <polygon id="path-1" points="0.000374747304 0.081 56.417 0.081 56.417 61.9999 0.000374747304 61.9999"></polygon>
    </defs>
    <g id="•-AP/1.Atoms/6.Logo/mobile/NBi21" stroke="none" stroke-width="1" fill="none" fill-rule="evenodd">
        <g id="Group-8" transform="translate(5.000000, 5.000000)">
            <g id="Group-3" transform="translate(0.000000, 0.918500)">
                <mask id="mask-2" fill="white">
                    <use xlink:href="#path-1"></use>
                </mask>
                <g id="Clip-2"></g>
                <path d="M26.945,61.4129 C19.057,57.7439 12.206,51.7309 7.653,44.4839 C3.111,37.2579 0.724,28.8889 0.14,18.1439 C-0.046,14.7159 -0.046,10.4399 0.139,5.0739 L0.223,2.6249 L2.64,2.2199 C11.145,0.8009 19.748,0.0809 28.209,0.0809 C36.67,0.0809 45.272,0.8009 53.776,2.2199 L56.193,2.6249 L56.278,5.0739 C56.464,10.4409 56.464,14.7169 56.277,18.1439 C55.692,28.8889 53.306,37.2579 48.764,44.4839 C44.212,51.7309 37.359,57.7439 29.472,61.4129 L28.209,61.9999 L26.945,61.4129 Z" id="Fill-1" fill="#000000" mask="url(#mask-2)"></path>
            </g>
            <path d="M52.1608,19.2646 C51.6268,29.1086 49.4698,36.7316 45.3728,43.2496 C41.3288,49.6866 35.2358,55.0496 28.2088,58.3646 C21.1808,55.0496 15.0898,49.6866 11.0438,43.2496 C6.9468,36.7306 4.7908,29.1076 4.2558,19.2646 C4.1858,18.0016 4.1488,16.7376 4.1288,15.4936 C4.1158,14.6036 4.1108,13.7216 4.1158,12.8616 C4.1258,10.8056 4.1818,8.8706 4.2438,7.1796 C12.1938,5.8656 20.2548,5.1976 28.2088,5.1976 C36.1608,5.1976 44.2228,5.8656 52.1728,7.1796 C52.2348,8.8706 52.2908,10.8056 52.3028,12.8616 C52.3078,13.7216 52.3028,14.6036 52.2878,15.4936 C52.2668,16.7376 52.2298,18.0016 52.1608,19.2646 M54.6018,6.7886 L54.5398,5.1006 L52.8718,4.8226 C36.5208,2.0786 19.8908,2.0786 3.5458,4.8226 L1.8778,5.1006 L1.8118,6.7896 C1.6838,10.2716 1.5678,14.8496 1.8148,19.3986 C2.3748,29.6736 4.6498,37.6656 8.9728,44.5476 C13.2968,51.4266 19.8158,57.1436 27.3278,60.6496 L28.2088,61.0626 L29.0838,60.6506 C36.6018,57.1456 43.1198,51.4276 47.4398,44.5496 C51.7668,37.6666 54.0418,29.6746 54.6008,19.3986 C54.8488,14.8206 54.7318,10.2556 54.6018,6.7886" id="Fill-4" fill="#FFFFFF"></path>
            <path d="M8.5368,11.3271 C8.5278,12.1631 8.5248,13.0141 8.5338,13.8931 C14.4828,13.0461 21.1468,12.5641 28.2088,12.5641 C35.2688,12.5641 41.9328,13.0471 47.8848,13.8931 C47.8928,13.0141 47.8891067,12.1631 47.8798,11.3271 C34.8098,9.5861 21.6028,9.5861 8.5368,11.3271" id="Fill-6" fill="#FFFFFF"></path>
        </g>
    </g>
</svg>